<svg xmlns="http://www.w3.org/2000/svg" xmlns:xlink="http://www.w3.org/1999/xlink" width="5000" zoomAndPan="magnify" viewBox="0 0 3750 3749.999967" height="5000" preserveAspectRatio="xMidYMid meet" version="1.2"><g id="a97eaf7d4b"><path style=" stroke:none;fill-rule:nonzero;fill:#d9a545;fill-opacity:1;" d="M 1116.851562 1747.46875 C 1177.605469 1730.160156 1222.574219 1674.835938 1222.574219 1608.65625 C 1222.574219 1528.730469 1157.582031 1463.734375 1077.65625 1463.734375 C 997.730469 1463.734375 932.734375 1528.730469 932.734375 1608.65625 C 932.734375 1672.289062 974.308594 1725.917969 1031.496094 1745.429688 L 354.746094 3458.207031 C 350.671875 3468.386719 355.253906 3480.097656 365.265625 3484.847656 C 436.03125 3518.449219 506.285156 3546.960938 575.695312 3571.394531 C 576.714844 3571.90625 577.5625 3572.753906 578.75 3573.09375 C 579.769531 3573.433594 580.785156 3573.261719 581.972656 3573.433594 C 594.871094 3577.84375 607.769531 3582.425781 620.496094 3586.5 C 623.039062 3588.027344 625.925781 3588.875 628.8125 3589.382812 C 690.242188 3608.898438 750.992188 3625.019531 811.234375 3637.242188 C 812.933594 3637.578125 814.289062 3638.769531 815.988281 3638.769531 C 816.328125 3638.769531 816.496094 3638.429688 816.835938 3638.429688 C 906.945312 3656.417969 995.527344 3666.257812 1082.074219 3667.617188 C 1089.035156 3667.785156 1095.992188 3667.785156 1102.949219 3667.785156 C 1338.152344 3667.785156 1567.089844 3606.015625 1783.785156 3484 C 1792.949219 3478.910156 1796.851562 3467.878906 1792.949219 3458.039062 L 1117.023438 1747.476562 Z M 1254.820312 2326.472656 L 1181.171875 2273.1875 L 1272.132812 2273.355469 C 1274.675781 2273.355469 1276.542969 2272 1278.917969 2271.152344 L 1321.683594 2379.417969 C 1316.761719 2379.078125 1311.839844 2379.929688 1307.769531 2382.980469 L 1234.289062 2436.609375 L 1262.628906 2350.0625 C 1265.511719 2341.40625 1262.289062 2331.902344 1254.992188 2326.644531 Z M 974.476562 1608.667969 C 974.476562 1551.820312 1020.804688 1505.492188 1077.65625 1505.492188 C 1134.503906 1505.492188 1180.832031 1551.820312 1180.832031 1608.667969 C 1180.832031 1665.519531 1134.503906 1711.84375 1077.65625 1711.84375 C 1020.804688 1711.84375 974.476562 1665.519531 974.476562 1608.667969 Z M 624.730469 3452.597656 L 551.082031 3399.3125 L 642.042969 3399.480469 C 651.203125 3399.480469 659.179688 3393.542969 661.894531 3385.054688 L 689.894531 3298.507812 L 717.894531 3385.054688 C 720.609375 3393.710938 728.757812 3399.480469 737.75 3399.480469 L 828.710938 3399.3125 L 755.0625 3452.597656 C 747.765625 3457.859375 744.542969 3467.363281 747.425781 3476.015625 L 775.765625 3562.5625 L 702.285156 3508.9375 C 694.988281 3503.507812 684.976562 3503.507812 677.679688 3508.9375 L 628.128906 3545.082031 C 622.699219 3543.214844 617.097656 3541.519531 611.667969 3539.652344 L 632.542969 3476.019531 C 635.425781 3467.363281 632.203125 3457.859375 624.90625 3452.597656 Z M 717.890625 3572.234375 C 704.316406 3568.5 690.910156 3565.109375 677.164062 3561.035156 L 689.890625 3551.703125 L 717.890625 3572.066406 Z M 831.761719 3599.046875 L 792.050781 3477.542969 L 905.917969 3395.070312 C 913.214844 3389.808594 916.441406 3380.308594 913.554688 3371.652344 C 910.839844 3362.996094 902.695312 3357.226562 893.699219 3357.226562 L 753.1875 3357.566406 L 710.085938 3223.847656 C 707.371094 3215.191406 699.226562 3209.421875 690.230469 3209.421875 C 681.066406 3209.421875 673.089844 3215.191406 670.375 3223.847656 L 627.273438 3357.566406 L 486.761719 3357.226562 C 477.765625 3357.226562 469.621094 3362.996094 466.90625 3371.652344 C 464.023438 3380.308594 467.246094 3389.808594 474.542969 3395.070312 L 588.410156 3477.542969 L 572.628906 3526.078125 C 516.117188 3505.542969 459.101562 3482.125 401.402344 3455.144531 L 697.1875 2706.449219 C 698.546875 2708.316406 699.226562 2710.691406 701.261719 2712.050781 L 815.128906 2794.523438 L 771.347656 2928.074219 C 768.460938 2936.730469 771.515625 2946.230469 778.984375 2951.492188 C 786.28125 2956.753906 796.292969 2956.753906 803.589844 2951.492188 L 917.121094 2868.683594 L 1030.648438 2951.492188 C 1034.382812 2954.207031 1038.625 2955.566406 1043.035156 2955.566406 C 1047.277344 2955.566406 1051.691406 2954.207031 1055.253906 2951.492188 C 1062.550781 2946.230469 1065.605469 2936.730469 1062.890625 2928.074219 L 1019.109375 2794.523438 L 1132.976562 2712.050781 C 1140.273438 2706.789062 1143.5 2697.285156 1140.613281 2688.632812 C 1137.898438 2679.976562 1129.753906 2674.207031 1120.757812 2674.207031 L 980.246094 2674.546875 L 937.144531 2540.824219 C 934.429688 2532.171875 926.285156 2526.402344 917.289062 2526.402344 C 908.125 2526.402344 900.148438 2532.171875 897.433594 2540.824219 L 854.332031 2674.546875 L 713.820312 2674.207031 C 712.292969 2674.207031 711.105469 2675.226562 709.746094 2675.566406 L 1074.257812 1753.101562 L 1075.105469 1753.101562 L 1260.585938 2222.675781 L 1257.699219 2231.5 L 1117.191406 2231.160156 C 1107.855469 2231.160156 1100.050781 2236.929688 1097.164062 2245.582031 C 1094.28125 2254.238281 1097.503906 2263.742188 1104.800781 2269 L 1218.667969 2351.472656 L 1174.886719 2485.023438 C 1172.003906 2493.679688 1175.058594 2503.183594 1182.523438 2508.445312 C 1186.257812 2511.160156 1190.5 2512.515625 1194.742188 2512.515625 C 1199.152344 2512.515625 1203.398438 2511.160156 1207.128906 2508.445312 L 1320.660156 2425.632812 L 1348.660156 2445.996094 L 1747.960938 3456.390625 C 1458.113281 3615.054688 1155.53125 3662.402344 832.621094 3599.105469 Z M 974.304688 2792.964844 L 1002.644531 2879.511719 L 929.164062 2825.886719 C 925.429688 2823.171875 921.1875 2821.816406 916.777344 2821.816406 C 912.363281 2821.816406 908.121094 2823.171875 904.386719 2825.886719 L 830.910156 2879.511719 L 859.25 2792.964844 C 862.132812 2784.3125 858.910156 2774.808594 851.613281 2769.546875 L 777.964844 2716.261719 L 868.925781 2716.429688 C 878.089844 2716.429688 886.0625 2710.660156 888.777344 2702.007812 L 916.78125 2615.460938 L 944.78125 2702.007812 C 947.496094 2710.660156 955.640625 2716.429688 964.632812 2716.429688 L 1055.59375 2716.261719 L 981.945312 2769.546875 C 974.648438 2774.808594 971.425781 2784.3125 974.308594 2792.964844 Z M 1331.523438 2964.359375 L 1288.417969 3098.082031 L 1147.90625 3097.742188 C 1138.742188 3097.914062 1130.765625 3103.511719 1127.882812 3112.167969 C 1124.996094 3120.820312 1128.222656 3130.324219 1135.519531 3135.585938 L 1249.386719 3218.058594 L 1205.605469 3351.609375 C 1202.71875 3360.265625 1205.773438 3369.765625 1213.242188 3375.027344 C 1220.539062 3380.289062 1230.550781 3380.289062 1237.847656 3375.027344 L 1351.375 3292.21875 L 1464.90625 3375.027344 C 1468.640625 3377.742188 1472.882812 3379.101562 1477.292969 3379.101562 C 1481.535156 3379.101562 1485.949219 3377.742188 1489.511719 3375.027344 C 1496.808594 3369.765625 1499.863281 3360.265625 1497.148438 3351.609375 L 1453.535156 3218.058594 L 1567.40625 3135.585938 C 1574.703125 3130.324219 1577.925781 3120.820312 1575.039062 3112.167969 C 1572.324219 3103.511719 1564.179688 3097.742188 1555.1875 3097.742188 L 1414.675781 3098.082031 L 1371.570312 2964.359375 C 1368.855469 2955.707031 1360.710938 2949.9375 1351.714844 2949.9375 C 1342.550781 2949.9375 1334.578125 2955.707031 1331.863281 2964.359375 Z M 1379.378906 3125.574219 C 1382.09375 3134.226562 1390.238281 3139.996094 1399.234375 3139.996094 L 1490.195312 3139.828125 L 1416.546875 3193.113281 C 1409.246094 3198.375 1406.023438 3207.878906 1408.910156 3216.53125 L 1437.246094 3303.078125 L 1363.769531 3249.453125 C 1356.472656 3244.023438 1346.460938 3244.023438 1339.164062 3249.453125 L 1265.683594 3303.078125 L 1294.023438 3216.53125 C 1296.90625 3207.878906 1293.683594 3198.375 1286.386719 3193.113281 L 1212.738281 3139.828125 L 1303.699219 3139.996094 C 1312.863281 3139.996094 1320.835938 3134.226562 1323.554688 3125.574219 L 1351.554688 3039.027344 L 1379.554688 3125.574219 Z M 2884.28125 833.097656 C 2888.691406 822.40625 2900.910156 817.484375 2911.601562 821.898438 C 2972.691406 847.519531 3076.378906 940.515625 3115.578125 1067.277344 C 3118.972656 1078.308594 3112.863281 1090.019531 3101.832031 1093.414062 C 3099.796875 1094.089844 3097.761719 1094.429688 3095.554688 1094.429688 C 3086.558594 1094.429688 3078.414062 1088.660156 3075.53125 1079.667969 C 3040.742188 967.160156 2947.40625 882.476562 2895.3125 860.585938 C 2884.621094 856.171875 2879.699219 843.785156 2884.109375 833.261719 Z M 1744.777344 698.183594 C 1744.777344 725.335938 1766.835938 747.566406 1794.15625 747.566406 C 1821.308594 747.566406 1843.539062 725.507812 1843.539062 698.183594 C 1843.539062 671.035156 1821.476562 648.804688 1794.15625 648.804688 C 1767.003906 648.804688 1744.777344 670.863281 1744.777344 698.183594 Z M 1808.585938 698.183594 C 1808.585938 706.160156 1802.136719 712.609375 1794.160156 712.609375 C 1786.183594 712.609375 1779.734375 706.160156 1779.734375 698.183594 C 1779.734375 690.210938 1786.183594 683.761719 1794.160156 683.761719 C 1802.136719 683.761719 1808.585938 690.210938 1808.585938 698.183594 Z M 2179.035156 429.382812 C 2190.402344 434.8125 2202.792969 437.527344 2215.011719 437.527344 C 2224.683594 437.527344 2234.355469 435.832031 2243.859375 432.4375 C 2265.070312 424.800781 2282.210938 409.1875 2291.714844 388.824219 C 2311.570312 346.570312 2293.410156 296 2250.988281 276.144531 C 2230.453125 266.46875 2207.542969 265.453125 2186.160156 273.089844 C 2164.949219 280.726562 2147.808594 296.335938 2138.304688 316.699219 C 2128.632812 337.234375 2127.613281 360.144531 2135.25 381.527344 C 2142.886719 402.738281 2158.5 419.878906 2178.863281 429.382812 Z M 2176.320312 334.519531 C 2181.238281 324.167969 2189.726562 316.363281 2200.585938 312.460938 C 2205.335938 310.765625 2210.257812 309.914062 2215.179688 309.914062 C 2221.457031 309.914062 2227.566406 311.273438 2233.335938 313.988281 C 2254.71875 324 2263.882812 349.625 2253.871094 371.007812 C 2248.949219 381.359375 2240.464844 389.164062 2229.605469 393.066406 C 2218.914062 396.96875 2207.203125 396.460938 2196.851562 391.539062 C 2186.5 386.617188 2178.695312 378.132812 2174.792969 367.273438 C 2170.890625 356.582031 2171.398438 344.875 2176.320312 334.519531 Z M 2132.367188 768.101562 C 2179.035156 768.101562 2217.046875 730.089844 2217.046875 683.421875 C 2217.046875 636.757812 2179.035156 598.746094 2132.367188 598.746094 C 2085.703125 598.746094 2047.6875 636.757812 2047.6875 683.421875 C 2047.6875 730.089844 2085.703125 768.101562 2132.367188 768.101562 Z M 2132.367188 640.488281 C 2155.957031 640.488281 2175.300781 659.664062 2175.300781 683.421875 C 2175.300781 707.011719 2156.125 726.355469 2132.367188 726.355469 C 2108.78125 726.355469 2089.433594 707.179688 2089.433594 683.421875 C 2089.433594 659.835938 2108.609375 640.488281 2132.367188 640.488281 Z M 737.117188 1624.382812 C 709.964844 1624.382812 687.734375 1646.441406 687.734375 1673.761719 C 687.734375 1700.914062 709.792969 1723.144531 737.117188 1723.144531 C 764.265625 1723.144531 786.496094 1701.082031 786.496094 1673.761719 C 786.496094 1646.609375 764.4375 1624.382812 737.117188 1624.382812 Z M 737.117188 1688.191406 C 729.140625 1688.191406 722.691406 1681.742188 722.691406 1673.765625 C 722.691406 1665.789062 729.140625 1659.339844 737.117188 1659.339844 C 745.089844 1659.339844 751.539062 1665.789062 751.539062 1673.765625 C 751.539062 1681.742188 745.089844 1688.191406 737.117188 1688.191406 Z M 1773.617188 1088.160156 C 1777.351562 1096.984375 1773.109375 1107.335938 1764.285156 1110.898438 C 1711.679688 1132.957031 1617.324219 1218.488281 1582.027344 1332.1875 C 1579.652344 1339.652344 1572.863281 1344.40625 1565.398438 1344.40625 C 1563.699219 1344.40625 1562.003906 1344.234375 1560.308594 1343.558594 C 1551.144531 1340.671875 1545.882812 1331 1548.769531 1321.664062 C 1587.628906 1196.089844 1690.296875 1103.941406 1750.875 1078.484375 C 1759.699219 1074.753906 1770.050781 1078.996094 1773.617188 1087.820312 Z M 674.992188 1363.578125 C 686.023438 1368.667969 697.730469 1371.382812 709.441406 1371.382812 C 718.773438 1371.382812 728.109375 1369.6875 737.101562 1366.460938 C 757.464844 1359.164062 773.757812 1344.230469 783.089844 1324.546875 C 792.253906 1304.863281 793.273438 1282.800781 785.976562 1262.4375 C 778.679688 1242.074219 763.746094 1225.78125 744.058594 1216.449219 C 724.375 1207.285156 702.316406 1206.265625 681.949219 1213.5625 C 661.585938 1220.859375 645.296875 1235.792969 635.960938 1255.476562 C 626.796875 1275.164062 625.78125 1297.222656 633.078125 1317.589844 C 640.375 1337.953125 655.308594 1354.242188 674.992188 1363.578125 Z M 667.695312 1270.246094 C 672.957031 1259.042969 682.289062 1250.558594 694 1246.316406 C 705.707031 1242.074219 718.265625 1242.753906 729.464844 1248.015625 C 740.664062 1253.273438 749.152344 1262.609375 753.394531 1274.316406 C 757.636719 1286.027344 756.957031 1298.582031 751.695312 1309.785156 C 746.4375 1320.984375 737.101562 1329.46875 725.394531 1333.710938 C 713.683594 1337.953125 701.125 1337.277344 689.925781 1332.015625 C 666.847656 1321.152344 656.835938 1293.492188 667.695312 1270.414062 Z M 1611.882812 345.914062 L 1570.984375 409.207031 C 1567.757812 414.300781 1568.097656 420.917969 1571.832031 425.667969 C 1575.734375 430.421875 1582.015625 432.117188 1587.785156 429.910156 L 1657.871094 402.421875 L 1705.386719 460.800781 C 1708.101562 464.191406 1712.175781 465.890625 1716.25 465.890625 C 1717.945312 465.890625 1719.640625 465.550781 1721.339844 464.871094 C 1726.941406 462.664062 1730.503906 457.066406 1730.164062 451.125 L 1725.75 375.949219 L 1796.007812 348.796875 C 1801.609375 346.589844 1805.171875 340.992188 1804.832031 335.050781 C 1804.492188 328.941406 1800.25 323.851562 1794.480469 322.324219 L 1721.679688 303.316406 L 1717.605469 228.140625 C 1717.265625 222.03125 1713.023438 216.941406 1707.253906 215.414062 C 1701.484375 213.886719 1695.207031 216.261719 1691.980469 221.351562 L 1651.421875 284.816406 L 1578.621094 265.472656 C 1572.851562 263.945312 1566.574219 266.320312 1563.347656 271.410156 C 1560.125 276.503906 1560.464844 283.121094 1564.367188 287.871094 L 1612.054688 346.078125 Z M 1653.964844 314.179688 C 1659.90625 315.707031 1666.015625 313.328125 1669.238281 308.238281 L 1691.980469 272.601562 L 1694.355469 314.859375 C 1694.695312 320.964844 1698.9375 326.058594 1704.707031 327.585938 L 1745.601562 338.277344 L 1706.234375 353.546875 C 1700.632812 355.753906 1696.898438 361.355469 1697.410156 367.464844 L 1699.953125 409.71875 L 1673.3125 376.96875 C 1670.597656 373.574219 1666.523438 371.875 1662.449219 371.875 C 1660.753906 371.875 1659.058594 372.214844 1657.359375 372.894531 L 1617.988281 388.335938 L 1640.898438 352.871094 C 1644.125 347.777344 1643.785156 341.160156 1640.050781 336.410156 L 1613.238281 303.828125 L 1654.136719 314.6875 Z M 1270.789062 925.417969 C 1271.464844 931.359375 1276.046875 936.28125 1281.988281 937.46875 L 1355.804688 952.0625 L 1364.460938 1026.898438 C 1365.140625 1032.839844 1369.722656 1037.761719 1375.660156 1038.949219 C 1376.507812 1039.117188 1377.527344 1039.289062 1378.375 1039.289062 C 1383.296875 1039.289062 1388.046875 1036.574219 1390.59375 1032.160156 L 1427.25 966.488281 L 1501.066406 981.421875 C 1507.007812 982.609375 1512.945312 979.894531 1516 974.632812 C 1518.886719 969.375 1518.207031 962.753906 1514.132812 958.34375 L 1462.882812 903.023438 L 1499.878906 837.519531 C 1502.933594 832.257812 1502.085938 825.640625 1498.011719 821.230469 C 1493.9375 816.816406 1487.320312 815.457031 1481.890625 818.003906 L 1413.503906 849.566406 L 1362.589844 794.078125 C 1358.519531 789.667969 1352.070312 788.308594 1346.46875 790.855469 C 1341.039062 793.398438 1337.644531 799.167969 1338.496094 805.109375 L 1347.488281 879.949219 L 1279.101562 911.34375 C 1273.671875 913.886719 1270.277344 919.65625 1271.125 925.597656 Z M 1368.195312 900.8125 C 1373.625 898.265625 1377.019531 892.496094 1376.171875 886.386719 L 1371.078125 844.472656 L 1399.589844 875.527344 C 1403.660156 879.9375 1410.28125 881.296875 1415.710938 878.75 L 1454.0625 861.101562 L 1433.359375 897.925781 C 1430.304688 903.1875 1431.152344 909.804688 1435.226562 914.21875 L 1463.90625 945.273438 L 1422.5 936.957031 C 1416.558594 935.769531 1410.449219 938.484375 1407.566406 943.746094 L 1387.03125 980.570312 L 1382.109375 938.65625 C 1381.429688 932.546875 1376.847656 927.792969 1370.910156 926.605469 L 1329.503906 918.460938 L 1367.855469 900.8125 Z M 2733.777344 2079.371094 C 2734.453125 2079.542969 2734.964844 2079.710938 2735.640625 2079.878906 C 2742.429688 2081.578125 2749.558594 2083.445312 2757.363281 2084.972656 C 2761.4375 2085.820312 2765.167969 2086.160156 2768.5625 2086.160156 C 2783.328125 2086.160156 2792.492188 2079.882812 2797.753906 2073.773438 C 2819.132812 2049.84375 2804.710938 2003.175781 2790.625 1957.867188 C 2790.285156 1956.679688 2789.945312 1955.828125 2789.605469 1954.640625 C 3024.640625 1908.484375 3277.164062 1625.765625 3277.164062 1293.3125 C 3277.164062 924.726562 3025.164062 624.859375 2715.277344 624.859375 C 2494.5 624.859375 2296.96875 776.570312 2205.34375 1013.46875 C 2120.328125 951.863281 2020.882812 915.550781 1914.144531 915.550781 C 1604.273438 915.550781 1352.253906 1215.40625 1352.253906 1584.003906 C 1352.253906 1909.316406 1596.789062 2179.824219 1832.6875 2239.90625 C 1815.71875 2309.484375 1810.964844 2351.058594 1833.367188 2369.386719 C 1839.644531 2374.476562 1853.390625 2381.605469 1874.605469 2371.421875 C 1881.5625 2368.199219 1887.671875 2366.671875 1893.78125 2365.820312 C 1875.792969 2737.632812 1982.535156 2894.085938 2095.71875 3059.039062 C 2180.226562 3182.070312 2267.453125 3309.171875 2313.101562 3538.777344 C 2315.140625 3548.789062 2323.792969 3555.578125 2333.636719 3555.578125 C 2334.992188 3555.578125 2336.351562 3555.40625 2337.707031 3555.238281 C 2349.078125 3553.03125 2356.375 3542 2354.167969 3530.632812 C 2306.996094 3292.542969 2217.226562 3161.707031 2130.339844 3035.296875 C 2016.808594 2870.011719 1918.726562 2726.105469 1935.523438 2370.925781 C 1942.144531 2372.625 1948.761719 2374.320312 1956.058594 2375.679688 C 1960.132812 2376.527344 1963.863281 2376.867188 1967.257812 2376.867188 C 1982.023438 2376.867188 1991.1875 2370.585938 1996.445312 2364.476562 C 2017.828125 2340.550781 2003.40625 2293.882812 1989.320312 2248.574219 C 1988.980469 2247.382812 1988.640625 2246.535156 1988.300781 2245.347656 C 2159.1875 2211.746094 2338.898438 2053.25 2424.597656 1841.125 C 2490.777344 1893.902344 2563.410156 1931.40625 2633.496094 1949.5625 C 2616.527344 2018.972656 2611.945312 2060.546875 2634.175781 2078.707031 C 2640.453125 2083.796875 2654.199219 2090.925781 2675.410156 2080.742188 C 2681.179688 2078.027344 2686.441406 2076.332031 2691.703125 2075.3125 C 2673.714844 2446.953125 2780.457031 2603.402344 2893.640625 2768.179688 C 2978.152344 2891.210938 3065.375 3018.316406 3111.027344 3247.917969 C 3113.0625 3257.933594 3121.714844 3264.71875 3131.558594 3264.71875 C 3132.917969 3264.71875 3134.273438 3264.550781 3135.632812 3264.378906 C 3147 3262.175781 3154.296875 3251.144531 3152.09375 3239.773438 C 3104.917969 3001.6875 3015.148438 2870.847656 2928.261719 2744.441406 C 2814.734375 2578.984375 2716.480469 2435.078125 2733.449219 2079.375 Z M 1964.359375 2207.324219 C 1961.644531 2206.984375 1958.929688 2207.152344 1956.214844 2207.832031 C 1946.03125 2210.546875 1939.925781 2220.390625 1941.28125 2230.574219 C 1941.28125 2230.910156 1941.113281 2231.25 1941.28125 2231.761719 C 1941.28125 2231.929688 1941.453125 2232.101562 1941.453125 2232.269531 L 1941.453125 2233.457031 C 1943.65625 2241.773438 1946.542969 2250.9375 1949.597656 2260.777344 C 1955.707031 2280.804688 1968.09375 2320.851562 1965.71875 2334.765625 C 1965.207031 2334.765625 1964.699219 2334.597656 1964.019531 2334.425781 C 1957.742188 2333.238281 1951.464844 2331.710938 1945.015625 2330.015625 C 1937.886719 2328.148438 1930.25 2326.453125 1922.445312 2325.09375 C 1920.746094 2324.585938 1919.050781 2323.734375 1917.183594 2323.734375 C 1916.167969 2323.734375 1915.316406 2324.074219 1914.46875 2324.074219 C 1898.347656 2322.207031 1880.699219 2322.886719 1860.164062 2332.050781 C 1859.148438 2320.511719 1862.03125 2295.566406 1875.269531 2242.621094 C 1876.625 2237.191406 1877.816406 2232.609375 1878.492188 2229.382812 L 1878.492188 2229.042969 C 1878.832031 2227.6875 1878.492188 2226.328125 1878.492188 2224.972656 C 1878.492188 2223.613281 1878.664062 2222.257812 1878.492188 2220.898438 C 1878.152344 2219.539062 1877.476562 2218.351562 1876.964844 2217.164062 C 1876.457031 2215.976562 1876.117188 2214.621094 1875.4375 2213.429688 C 1874.761719 2212.242188 1873.570312 2211.566406 1872.722656 2210.546875 C 1871.707031 2209.527344 1871.027344 2208.511719 1869.839844 2207.660156 C 1868.652344 2206.8125 1867.292969 2206.472656 1866.105469 2205.964844 C 1864.917969 2205.457031 1863.898438 2204.605469 1862.542969 2204.4375 L 1862.203125 2204.4375 C 1752.917969 2182.375 1635.144531 2105.164062 1547.074219 1997.914062 C 1448.648438 1877.769531 1394.34375 1730.8125 1394.34375 1584.191406 C 1394.34375 1238.6875 1627.679688 957.484375 1914.3125 957.484375 C 2201.105469 957.484375 2434.277344 1238.507812 2434.277344 1584.191406 C 2434.277344 1734.203125 2378.789062 1884.558594 2277.984375 2007.929688 C 2187.875 2118.066406 2071.125 2192.222656 1964.554688 2207.664062 Z M 2661.140625 2041.191406 C 2660.121094 2029.652344 2663.007812 2004.703125 2676.242188 1951.757812 C 2677.601562 1946.328125 2678.789062 1941.746094 2679.46875 1938.523438 L 2679.46875 1938.183594 C 2679.804688 1936.824219 2679.46875 1935.636719 2679.46875 1934.28125 C 2679.46875 1932.921875 2679.804688 1931.394531 2679.46875 1930.207031 C 2679.128906 1928.847656 2678.449219 1927.660156 2677.941406 1926.472656 C 2677.429688 1925.285156 2677.089844 1923.929688 2676.414062 1922.738281 C 2675.734375 1921.550781 2674.546875 1920.875 2673.695312 1919.855469 C 2672.679688 1918.835938 2672 1917.820312 2670.8125 1916.96875 C 2669.625 1916.121094 2668.265625 1915.78125 2666.910156 1915.273438 C 2665.722656 1914.765625 2664.703125 1914.085938 2663.34375 1913.746094 L 2663.007812 1913.746094 C 2589.1875 1898.8125 2510.449219 1858.257812 2439.683594 1799.539062 C 2462.421875 1731.660156 2475.828125 1659.367188 2475.828125 1584.191406 C 2475.828125 1360.019531 2382.328125 1161.8125 2239.609375 1040.464844 C 2322.933594 813.234375 2508.242188 666.785156 2715.089844 666.785156 C 3001.882812 666.785156 3235.058594 947.808594 3235.058594 1293.492188 C 3235.058594 1443.503906 3179.570312 1593.859375 3078.761719 1717.226562 C 2988.65625 1827.363281 2871.902344 1901.519531 2765.332031 1916.964844 C 2762.617188 1916.625 2759.902344 1916.796875 2757.1875 1917.472656 C 2747.003906 1920.1875 2740.894531 1930.03125 2742.253906 1940.214844 C 2742.253906 1940.554688 2742.082031 1940.894531 2742.253906 1941.402344 C 2742.253906 1941.570312 2742.421875 1941.742188 2742.421875 1941.910156 L 2742.421875 1943.097656 C 2744.628906 1951.414062 2747.515625 1960.578125 2750.570312 1970.421875 C 2756.675781 1990.445312 2769.066406 2030.492188 2766.691406 2044.40625 C 2766.179688 2044.40625 2765.671875 2044.238281 2764.992188 2044.066406 C 2758.714844 2042.878906 2752.433594 2041.351562 2745.988281 2039.65625 C 2737.164062 2037.28125 2727.488281 2035.246094 2717.648438 2033.886719 C 2716.800781 2033.71875 2715.949219 2033.207031 2715.101562 2033.207031 C 2714.59375 2033.207031 2714.253906 2033.378906 2713.746094 2033.378906 C 2697.960938 2031.679688 2680.824219 2032.699219 2660.96875 2041.523438 Z M 1161.496094 759.105469 C 1172.695312 764.367188 1184.402344 766.742188 1195.941406 766.742188 C 1226.488281 766.742188 1255.847656 749.433594 1269.589844 720.078125 C 1288.597656 679.519531 1271.117188 630.984375 1230.5625 611.976562 C 1210.875 602.8125 1188.816406 601.796875 1168.449219 609.09375 C 1148.085938 616.390625 1131.796875 631.324219 1122.460938 651.007812 C 1113.296875 670.691406 1112.28125 692.753906 1119.578125 713.117188 C 1126.875 733.484375 1141.808594 749.773438 1161.492188 759.105469 Z M 1154.027344 665.941406 C 1159.289062 654.742188 1168.621094 646.257812 1180.332031 642.015625 C 1192.039062 637.773438 1204.597656 638.453125 1215.796875 643.710938 C 1238.875 654.574219 1248.890625 682.234375 1238.027344 705.316406 C 1227.167969 728.394531 1199.507812 738.40625 1176.425781 727.546875 C 1153.347656 716.683594 1143.335938 689.023438 1154.195312 665.945312 Z M 710.433594 990.578125 L 784.25 1005.171875 L 792.90625 1080.011719 C 793.585938 1085.949219 798.167969 1090.871094 804.105469 1092.058594 C 804.953125 1092.230469 805.972656 1092.398438 806.820312 1092.398438 C 811.742188 1092.398438 816.492188 1089.683594 819.039062 1085.273438 L 855.695312 1019.597656 L 929.511719 1034.53125 C 935.453125 1035.71875 941.390625 1033.003906 944.445312 1027.746094 C 947.332031 1022.484375 946.652344 1015.867188 942.578125 1011.453125 L 891.328125 956.132812 L 928.324219 890.628906 C 931.378906 885.371094 930.53125 878.75 926.457031 874.339844 C 922.382812 869.925781 915.765625 868.570312 910.335938 871.117188 L 841.949219 902.679688 L 791.039062 847.191406 C 786.964844 842.777344 780.515625 841.421875 774.917969 843.964844 C 769.484375 846.511719 766.089844 852.28125 766.941406 858.21875 L 775.933594 933.058594 L 707.546875 964.453125 C 702.117188 967 698.722656 972.769531 699.570312 978.707031 C 700.25 984.648438 704.832031 989.566406 710.769531 990.757812 Z M 796.640625 954.09375 C 802.070312 951.546875 805.464844 945.777344 804.617188 939.667969 L 799.527344 897.753906 L 828.035156 928.808594 C 832.109375 933.21875 838.726562 934.578125 844.15625 932.03125 L 882.507812 914.382812 L 861.804688 951.207031 C 858.75 956.46875 859.597656 963.085938 863.671875 967.5 L 892.351562 998.554688 L 850.945312 990.238281 C 845.003906 989.050781 838.894531 991.765625 836.011719 997.027344 L 815.476562 1033.851562 L 810.554688 991.9375 C 809.878906 985.828125 805.296875 981.074219 799.355469 979.886719 L 757.949219 971.742188 L 796.300781 954.09375 Z M 1157.421875 1152.640625 C 1184.570312 1152.640625 1206.800781 1130.578125 1206.800781 1103.257812 C 1206.800781 1076.105469 1184.742188 1053.878906 1157.421875 1053.878906 C 1130.269531 1053.878906 1108.039062 1075.9375 1108.039062 1103.257812 C 1108.039062 1130.410156 1130.097656 1152.640625 1157.421875 1152.640625 Z M 1157.421875 1088.832031 C 1165.394531 1088.832031 1171.84375 1095.28125 1171.84375 1103.253906 C 1171.84375 1111.230469 1165.394531 1117.679688 1157.421875 1117.679688 C 1149.445312 1117.679688 1142.996094 1111.230469 1142.996094 1103.253906 C 1142.996094 1095.28125 1149.445312 1088.832031 1157.421875 1088.832031 Z M 524.632812 1983.144531 L 598.449219 1997.738281 L 607.105469 2072.578125 C 607.785156 2078.515625 612.367188 2083.4375 618.304688 2084.625 C 619.152344 2084.796875 620.171875 2084.964844 621.019531 2084.964844 C 625.941406 2084.964844 630.695312 2082.25 633.238281 2077.839844 L 669.894531 2012.164062 L 743.710938 2027.097656 C 749.652344 2028.285156 755.589844 2025.570312 758.644531 2020.3125 C 761.53125 2015.050781 760.851562 2008.433594 756.777344 2004.019531 L 705.527344 1948.871094 L 742.523438 1883.195312 C 745.578125 1877.9375 744.730469 1871.316406 740.65625 1866.90625 C 736.582031 1862.492188 729.964844 1861.136719 724.535156 1863.683594 L 656.148438 1895.246094 L 605.238281 1839.757812 C 601.164062 1835.34375 594.714844 1833.984375 589.117188 1836.53125 C 583.683594 1839.078125 580.292969 1844.847656 581.140625 1850.785156 L 590.132812 1925.625 L 521.746094 1957.019531 C 516.316406 1959.566406 512.921875 1965.335938 513.769531 1971.273438 C 514.449219 1977.214844 519.03125 1982.132812 524.972656 1983.320312 Z M 610.839844 1946.660156 C 616.269531 1944.113281 619.664062 1938.34375 618.816406 1932.234375 L 613.726562 1890.320312 L 642.234375 1921.375 C 646.308594 1925.785156 652.925781 1927.144531 658.355469 1924.597656 L 696.707031 1906.949219 L 676.003906 1943.773438 C 672.949219 1949.035156 673.796875 1955.652344 677.871094 1960.066406 L 706.550781 1991.121094 L 665.144531 1982.804688 C 659.203125 1981.617188 653.09375 1984.332031 650.210938 1989.59375 L 629.675781 2026.417969 L 624.753906 1984.503906 C 624.078125 1978.394531 619.496094 1973.640625 613.554688 1972.453125 L 572.148438 1964.308594 L 610.5 1946.660156 Z M 610.839844 1946.660156 "/></g></svg>