<svg xmlns="http://www.w3.org/2000/svg" xmlns:xlink="http://www.w3.org/1999/xlink" width="5000" zoomAndPan="magnify" viewBox="0 0 3750 3749.999967" height="5000" preserveAspectRatio="xMidYMid meet" version="1.2"><g id="9f5ff34b57"><path style=" stroke:none;fill-rule:nonzero;fill:#d9a545;fill-opacity:1;" d="M 1512.179688 2508.472656 C 1515.386719 2524.644531 1504.75 2540.378906 1488.578125 2543.441406 C 1430.148438 2554.804688 1370.117188 2560.632812 1310.085938 2560.632812 C 799.109375 2560.632812 383.398438 2144.921875 383.398438 1633.945312 C 383.398438 1122.96875 799.109375 707.257812 1310.085938 707.257812 C 1821.0625 707.257812 2236.773438 1122.96875 2236.773438 1633.945312 C 2236.773438 1897.378906 2124 2149.285156 1927.445312 2325.007812 C 1915.203125 2335.9375 1896.261719 2334.914062 1885.335938 2322.675781 C 1874.40625 2310.4375 1875.429688 2291.496094 1887.667969 2280.570312 C 2071.546875 2116.214844 2177.179688 1880.449219 2177.179688 1633.929688 C 2177.179688 1155.890625 1788.289062 766.851562 1310.097656 766.851562 C 832.058594 766.851562 443.167969 1155.742188 443.167969 1633.929688 C 443.167969 2111.972656 832.058594 2500.863281 1310.097656 2500.863281 C 1366.339844 2500.863281 1422.4375 2495.472656 1477.078125 2484.835938 C 1493.25 2481.628906 1508.839844 2492.265625 1512.046875 2508.441406 Z M 1310.085938 981.363281 C 1669.976562 981.363281 1962.691406 1274.082031 1962.691406 1633.96875 C 1962.691406 1779.964844 1915.632812 1917.945312 1826.460938 2033.042969 C 1816.40625 2046.011719 1818.738281 2064.804688 1831.851562 2074.859375 C 1844.820312 2084.914062 1863.617188 2082.582031 1873.667969 2069.46875 C 1970.855469 1943.726562 2022.289062 1793.214844 2022.289062 1633.953125 C 2022.289062 1241.140625 1702.761719 921.742188 1310.078125 921.742188 C 917.269531 921.742188 597.867188 1241.269531 597.867188 1633.953125 C 597.867188 2026.761719 917.394531 2346.164062 1310.078125 2346.164062 C 1350.4375 2346.164062 1390.945312 2342.8125 1430.578125 2335.964844 C 1446.75 2333.195312 1457.675781 2317.75 1454.910156 2301.578125 C 1452.140625 2285.402344 1436.695312 2274.476562 1420.523438 2277.246094 C 1384.242188 2283.363281 1347.234375 2286.570312 1310.082031 2286.570312 C 950.191406 2286.570312 657.476562 1993.847656 657.476562 1633.964844 C 657.476562 1274.082031 950.195312 981.359375 1310.082031 981.359375 Z M 2439.875 1222.648438 C 2379.84375 1222.648438 2319.8125 1228.476562 2261.386719 1239.84375 C 2245.210938 1243.046875 2234.722656 1258.640625 2237.78125 1274.8125 C 2240.988281 1290.984375 2256.578125 1301.476562 2272.75 1298.414062 C 2327.386719 1287.78125 2383.632812 1282.386719 2439.730469 1282.386719 C 2917.769531 1282.386719 3306.660156 1671.28125 3306.660156 2149.46875 C 3306.660156 2627.511719 2917.769531 3016.402344 2439.730469 3016.402344 C 1961.6875 3016.402344 1572.796875 2627.511719 1572.796875 2149.46875 C 1572.796875 1903.375 1677.992188 1667.921875 1861.4375 1503.578125 C 1873.675781 1492.652344 1874.695312 1473.710938 1863.769531 1461.472656 C 1852.839844 1449.230469 1833.898438 1448.210938 1821.660156 1459.140625 C 1625.6875 1634.855469 1513.207031 1886.488281 1513.207031 2149.492188 C 1513.207031 2660.46875 1928.917969 3076.179688 2439.894531 3076.179688 C 2950.867188 3076.179688 3366.582031 2660.46875 3366.582031 2149.492188 C 3366.582031 1638.515625 2950.867188 1222.804688 2439.894531 1222.804688 Z M 2439.875 2801.941406 C 2079.988281 2801.941406 1787.269531 2509.222656 1787.269531 2149.335938 C 1787.269531 2000.71875 1835.933594 1860.695312 1928.019531 1744.441406 C 1938.21875 1731.476562 1936.03125 1712.824219 1923.210938 1702.480469 C 1910.242188 1692.28125 1891.59375 1694.464844 1881.246094 1707.289062 C 1780.710938 1834.195312 1727.527344 1987.039062 1727.527344 2149.222656 C 1727.527344 2542.03125 2047.058594 2861.433594 2439.738281 2861.433594 C 2832.546875 2861.433594 3151.949219 2541.902344 3151.949219 2149.222656 C 3151.949219 1756.414062 2832.421875 1436.863281 2439.738281 1436.863281 C 2393.84375 1436.863281 2347.949219 1441.234375 2303.363281 1449.976562 C 2287.191406 1453.179688 2276.554688 1468.769531 2279.757812 1484.945312 C 2282.964844 1501.117188 2298.554688 1511.609375 2314.726562 1508.546875 C 2355.671875 1500.679688 2397.78125 1496.601562 2439.742188 1496.601562 C 2799.632812 1496.601562 3092.347656 1789.320312 3092.347656 2149.207031 C 3092.347656 2509.089844 2799.628906 2801.8125 2439.742188 2801.8125 Z M 1863.921875 612.867188 C 1859.257812 503.296875 1922.347656 411.359375 2021.132812 384.109375 C 2110.449219 359.484375 2200.058594 394.019531 2259.941406 472.40625 C 2319.828125 394.015625 2409.433594 359.632812 2498.75 384.109375 C 2597.535156 411.355469 2660.625 503.296875 2655.960938 612.867188 C 2649.261719 767.164062 2554.84375 850.800781 2463.339844 931.667969 C 2396.023438 991.261719 2326.230469 1052.894531 2287.328125 1145.125 C 2286.015625 1148.332031 2283.976562 1151.097656 2281.644531 1153.574219 C 2281.0625 1154.304688 2280.332031 1154.742188 2279.605469 1155.324219 C 2277.566406 1157.21875 2275.234375 1158.675781 2272.757812 1159.988281 C 2272.175781 1160.277344 2271.882812 1160.714844 2271.300781 1161.007812 C 2270.863281 1161.152344 2270.425781 1161.152344 2270.136719 1161.296875 C 2266.785156 1162.464844 2263.433594 1163.339844 2259.789062 1163.339844 C 2256.292969 1163.339844 2252.796875 1162.464844 2249.445312 1161.296875 C 2249.007812 1161.152344 2248.570312 1161.152344 2248.28125 1161.007812 C 2247.695312 1160.714844 2247.40625 1160.277344 2246.824219 1159.988281 C 2244.34375 1158.820312 2242.160156 1157.21875 2239.972656 1155.324219 C 2239.246094 1154.742188 2238.515625 1154.160156 2237.933594 1153.574219 C 2235.601562 1151.097656 2233.710938 1148.332031 2232.253906 1145.125 C 2193.347656 1053.039062 2123.703125 991.261719 2056.238281 931.667969 C 1964.882812 850.800781 1870.320312 767.164062 1863.617188 612.867188 Z M 1923.515625 610.386719 C 1929.054688 739.335938 2006.421875 807.820312 2096.03125 887.082031 C 2155.183594 939.386719 2215.652344 993.445312 2259.945312 1068.484375 C 2304.238281 993.59375 2364.707031 939.390625 2423.863281 887.082031 C 2513.46875 807.820312 2590.839844 739.339844 2596.375 610.386719 C 2600.746094 510.144531 2537.949219 456.960938 2483.015625 441.664062 C 2425.460938 425.78125 2339.496094 442.394531 2286.316406 541.035156 C 2285.878906 541.765625 2285.152344 542.347656 2284.714844 543.074219 C 2283.546875 544.824219 2282.382812 546.28125 2280.925781 547.738281 C 2279.46875 549.195312 2278.011719 550.507812 2276.410156 551.527344 C 2275.679688 551.964844 2275.242188 552.839844 2274.371094 553.273438 C 2273.496094 553.710938 2272.476562 553.710938 2271.601562 554.148438 C 2269.707031 555.023438 2267.8125 555.460938 2265.773438 555.898438 C 2263.878906 556.1875 2262.128906 556.480469 2260.234375 556.480469 C 2258.34375 556.480469 2256.59375 556.335938 2254.699219 555.898438 C 2252.660156 555.460938 2250.765625 554.878906 2248.871094 554.148438 C 2247.996094 553.710938 2246.976562 553.710938 2246.101562 553.273438 C 2245.230469 552.839844 2244.792969 552.109375 2244.0625 551.527344 C 2242.316406 550.359375 2240.859375 549.195312 2239.546875 547.738281 C 2238.089844 546.28125 2236.777344 544.824219 2235.757812 543.074219 C 2235.320312 542.347656 2234.59375 541.910156 2234.15625 541.035156 C 2180.972656 442.394531 2094.859375 425.929688 2037.457031 441.664062 C 1982.378906 456.816406 1919.730469 510.144531 1923.953125 610.386719 Z M 2342.398438 364.4375 C 2356.386719 373.035156 2374.746094 368.664062 2383.488281 354.53125 C 2411.753906 308.339844 2463.1875 280.511719 2517.386719 281.96875 C 2579.019531 283.71875 2634.386719 321.894531 2669.355469 386.730469 C 2669.941406 387.898438 2670.8125 388.625 2671.542969 389.644531 C 2672.125 390.375 2672.5625 391.25 2673.144531 391.832031 C 2675.476562 394.453125 2678.097656 396.785156 2681.160156 398.386719 C 2681.304688 398.386719 2681.304688 398.535156 2681.449219 398.679688 C 2681.742188 398.824219 2682.179688 398.824219 2682.617188 398.972656 C 2685.382812 400.28125 2688.300781 401.15625 2691.359375 401.59375 C 2692.234375 401.738281 2692.960938 401.886719 2693.835938 401.886719 C 2694.417969 401.886719 2695 402.175781 2695.585938 402.175781 C 2696.457031 402.175781 2697.332031 401.59375 2698.207031 401.449219 C 2701.414062 401.15625 2704.472656 400.429688 2707.386719 399.117188 C 2708.113281 398.824219 2708.988281 398.972656 2709.71875 398.535156 C 2710.445312 398.097656 2711.027344 397.367188 2711.757812 396.929688 C 2713.507812 395.765625 2714.964844 394.601562 2716.421875 393.144531 C 2717.878906 391.6875 2719.1875 390.230469 2720.207031 388.480469 C 2720.644531 387.75 2721.375 387.316406 2721.8125 386.441406 C 2774.992188 287.800781 2861.105469 271.335938 2918.511719 287.070312 C 2973.585938 302.222656 3036.238281 355.546875 3032.015625 455.648438 C 3026.476562 584.59375 2949.109375 653.078125 2859.5 732.339844 C 2800.347656 784.648438 2739.878906 838.851562 2695.585938 913.742188 C 2679.121094 886.058594 2659.742188 859.25 2636.136719 832.730469 C 2625.207031 820.492188 2606.265625 819.324219 2594.027344 830.253906 C 2581.789062 841.179688 2580.621094 860.121094 2591.550781 872.363281 C 2625.644531 910.679688 2650.707031 949.292969 2668.046875 990.382812 C 2669.355469 993.589844 2671.398438 996.355469 2673.726562 998.835938 C 2674.3125 999.5625 2675.039062 1000 2675.769531 1000.582031 C 2677.808594 1002.476562 2680.140625 1003.933594 2682.46875 1005.246094 C 2683.054688 1005.535156 2683.34375 1005.972656 2683.929688 1006.265625 C 2684.363281 1006.410156 2684.800781 1006.410156 2685.09375 1006.554688 C 2688.445312 1007.722656 2691.796875 1008.597656 2695.4375 1008.597656 L 2695.730469 1008.597656 C 2699.226562 1008.597656 2702.722656 1007.722656 2706.074219 1006.554688 C 2706.511719 1006.410156 2706.949219 1006.410156 2707.242188 1006.265625 C 2707.824219 1005.972656 2708.113281 1005.535156 2708.699219 1005.246094 C 2711.175781 1004.078125 2713.359375 1002.476562 2715.546875 1000.582031 C 2716.273438 1000 2717.003906 999.417969 2717.585938 998.835938 C 2719.917969 996.355469 2721.8125 993.589844 2723.269531 990.382812 C 2762.171875 898.152344 2831.820312 836.519531 2899.28125 776.925781 C 2990.636719 696.058594 3085.199219 612.421875 3091.902344 458.125 C 3096.566406 348.554688 3033.476562 256.617188 2934.691406 229.367188 C 2845.230469 204.746094 2755.617188 239.277344 2695.738281 317.664062 C 2650.570312 258.214844 2588.351562 223.6875 2519.289062 221.792969 C 2443.667969 219.753906 2372.273438 258.363281 2332.785156 322.765625 C 2324.191406 336.753906 2328.5625 355.109375 2342.695312 363.855469 Z M 2342.398438 364.4375 "/></g></svg>