<svg xmlns="http://www.w3.org/2000/svg" xmlns:xlink="http://www.w3.org/1999/xlink" width="5000" zoomAndPan="magnify" viewBox="0 0 3750 3749.999967" height="5000" preserveAspectRatio="xMidYMid meet" version="1.2"><g id="89ae222d13"><path style=" stroke:none;fill-rule:nonzero;fill:#d9a545;fill-opacity:1;" d="M 2054.914062 922.175781 C 2054.914062 870.292969 2097.222656 827.984375 2149.105469 827.984375 C 2200.992188 827.984375 2243.300781 870.292969 2243.300781 922.175781 C 2243.300781 940.351562 2258.007812 955.054688 2276.179688 955.054688 L 2416.988281 955.054688 C 2435.160156 955.054688 2449.867188 940.351562 2449.867188 922.175781 L 2449.867188 488.371094 C 2449.867188 414.007812 2389.382812 353.386719 2314.882812 353.386719 L 1447.265625 353.386719 C 1372.90625 353.386719 1312.285156 413.871094 1312.285156 488.371094 L 1312.285156 922.175781 C 1312.285156 940.351562 1326.988281 955.054688 1345.160156 955.054688 L 1455.3125 955.054688 C 1468.492188 1029.96875 1534.113281 1087.128906 1612.910156 1087.128906 C 1691.566406 1087.128906 1757.1875 1029.96875 1770.367188 955.054688 L 2022.015625 955.054688 C 2040.191406 955.054688 2054.894531 940.351562 2054.894531 922.175781 Z M 1739.859375 889.300781 C 1730.703125 889.300781 1722.101562 893.320312 1715.859375 899.980469 C 1709.617188 906.640625 1706.425781 915.796875 1707.121094 924.953125 L 1707.121094 927.171875 C 1707.121094 979.054688 1664.949219 1021.226562 1613.066406 1021.226562 C 1561.183594 1021.226562 1518.871094 979.054688 1518.871094 927.171875 L 1518.871094 925.089844 C 1519.703125 915.933594 1516.648438 906.777344 1510.40625 899.980469 C 1504.164062 893.183594 1495.425781 889.300781 1486.128906 889.300781 L 1378.335938 889.300781 L 1378.199219 488.378906 C 1378.199219 450.226562 1409.273438 419.152344 1447.421875 419.152344 L 1848.34375 419.152344 L 1848.34375 497.671875 C 1775.925781 512.929688 1721.269531 577.300781 1721.269531 654.296875 C 1721.269531 731.292969 1775.929688 795.664062 1848.34375 810.921875 L 1848.34375 889.441406 L 1739.859375 889.441406 Z M 1992.625 889.300781 L 1914.105469 889.300781 L 1914.105469 781.367188 C 1914.105469 763.195312 1899.398438 748.488281 1881.226562 748.488281 C 1829.34375 748.488281 1787.03125 706.175781 1787.03125 654.292969 C 1787.03125 602.410156 1829.34375 560.097656 1881.226562 560.097656 C 1899.398438 560.097656 1914.105469 545.394531 1914.105469 527.21875 L 1914.105469 419.289062 L 2315.027344 419.289062 C 2353.175781 419.289062 2384.25 450.363281 2384.25 488.511719 L 2384.25 889.433594 L 2305.734375 889.433594 C 2290.472656 817.019531 2226.101562 762.363281 2149.105469 762.363281 C 2072.113281 762.363281 2007.742188 817.023438 1992.480469 889.433594 Z M 1722.933594 1438.957031 L 1722.933594 1327.558594 C 1722.933594 1309.382812 1708.230469 1294.679688 1690.054688 1294.679688 L 1548.691406 1294.679688 C 1539.394531 1294.679688 1530.65625 1298.5625 1524.414062 1305.359375 C 1518.171875 1312.160156 1515.117188 1321.316406 1515.949219 1330.472656 L 1515.949219 1332.691406 C 1515.949219 1384.574219 1473.777344 1426.746094 1421.894531 1426.746094 C 1370.011719 1426.746094 1327.699219 1384.574219 1327.699219 1332.691406 L 1327.699219 1330.472656 C 1328.53125 1321.316406 1325.339844 1312.160156 1319.097656 1305.5 C 1312.855469 1298.703125 1304.117188 1294.816406 1294.820312 1294.816406 L 1154.152344 1294.816406 C 1135.980469 1294.816406 1121.273438 1309.523438 1121.273438 1327.695312 L 1121.273438 1761.503906 C 1121.273438 1834.476562 1179.539062 1893.992188 1251.957031 1896.210938 L 1213.945312 1995.402344 C 1195.078125 2044.652344 1152.765625 2080.027344 1103.378906 2087.9375 C 1072.027344 2091.125 1037.480469 2085.300781 1019.308594 2077.671875 C 1002.105469 2070.457031 978.105469 2063.519531 961.042969 2058.941406 C 873.507812 2035.496094 783.054688 2029.53125 692.1875 2041.460938 C 627.820312 2049.925781 573.4375 2061.4375 530.570312 2075.726562 C 529.042969 2076.28125 527.242188 2076.835938 525.296875 2077.390625 C 494.082031 2087.242188 420.972656 2110.132812 365.207031 2205.023438 C 337.738281 2251.773438 319.425781 2304.769531 288.90625 2405.625 C 284.746094 2419.21875 280.167969 2433.785156 275.171875 2449.460938 C 253.945312 2515.636719 227.589844 2597.765625 213.300781 2696.121094 C 206.222656 2729.554688 212.46875 2763.960938 230.917969 2792.816406 C 249.507812 2822.085938 278.5 2842.339844 312.351562 2849.835938 C 346.203125 2857.324219 381.023438 2851.222656 410.292969 2832.492188 C 439.566406 2813.902344 459.820312 2784.910156 467.3125 2751.058594 C 467.3125 2750.78125 467.453125 2750.644531 467.453125 2750.367188 C 494.78125 2612.886719 514.894531 2528.398438 529.464844 2476.515625 C 537.925781 2618.160156 535.984375 2878.257812 531.820312 2930.851562 L 426.246094 3444.144531 C 416.953125 3477.300781 421.667969 3513.230469 439.148438 3542.777344 C 456.769531 3572.882812 486.453125 3594.523438 520.445312 3602.292969 C 586.480469 3617.414062 656.257812 3573.4375 672.910156 3506.292969 L 801.648438 2986.753906 L 930.941406 3508.777344 C 945.371094 3566.90625 996.5625 3605.472656 1053.855469 3605.472656 C 1063.148438 3605.472656 1072.582031 3604.503906 1082.015625 3602.421875 L 1089.644531 3600.757812 C 1158.179688 3585.636719 1201.460938 3517.519531 1186.339844 3448.988281 L 1071.613281 2930.976562 C 1065.785156 2815.695312 1063.425781 2441.695312 1085.347656 2390.625 C 1101.992188 2375.921875 1121.414062 2372.175781 1155.683594 2366.625 C 1192.027344 2360.796875 1237.117188 2353.445312 1291.910156 2323.621094 C 1292.1875 2323.480469 1292.605469 2323.203125 1292.882812 2323.066406 C 1360.164062 2283.390625 1414.269531 2219.992188 1445.070312 2144.523438 C 1468.097656 2088.339844 1494.179688 2019.945312 1513.046875 1939.761719 C 1517.347656 1925.335938 1519.011719 1910.628906 1518.320312 1896.0625 L 1690.0625 1896.0625 C 1708.238281 1896.0625 1722.941406 1881.355469 1722.941406 1863.183594 L 1722.941406 1751.785156 C 1795.359375 1736.523438 1850.015625 1672.15625 1850.015625 1595.160156 C 1850.015625 1518.164062 1795.355469 1453.792969 1722.941406 1438.535156 Z M 1449.777344 1921.597656 C 1449.5 1922.429688 1449.363281 1923.121094 1449.085938 1923.953125 C 1431.328125 2000.117188 1406.21875 2065.734375 1384.023438 2119.839844 C 1358.636719 2181.851562 1314.519531 2233.871094 1259.722656 2266.335938 C 1215.191406 2290.472656 1177.871094 2296.578125 1144.992188 2301.847656 C 1106.566406 2308.09375 1070.21875 2313.917969 1037.480469 2345.273438 C 1024.441406 2357.621094 1004.878906 2376.488281 1002.105469 2641.039062 C 1000.71875 2772.136719 1004.324219 2906.011719 1005.988281 2937.222656 C 1006.128906 2939.027344 1006.265625 2940.832031 1006.683594 2942.632812 L 1121.964844 3463.273438 C 1129.320312 3496.292969 1108.371094 3529.171875 1075.214844 3536.523438 L 1067.585938 3538.1875 C 1034.707031 3545.402344 1002.800781 3525.5625 994.613281 3492.964844 L 833.273438 2842.054688 C 829.664062 2827.351562 816.484375 2817.085938 801.363281 2817.085938 C 786.242188 2817.085938 773.0625 2827.351562 769.457031 2842.054688 L 608.8125 3490.476562 C 600.765625 3523.078125 566.222656 3545.277344 534.871094 3538.058594 C 518.222656 3534.316406 504.210938 3524.050781 495.609375 3509.34375 C 487.007812 3494.636719 484.789062 3477.4375 489.644531 3461.066406 C 489.921875 3460.234375 490.058594 3459.402344 490.335938 3458.429688 L 596.464844 2942.085938 C 596.742188 2940.835938 596.882812 2939.589844 597.019531 2938.339844 C 599.65625 2908.652344 602.152344 2767.011719 600.070312 2632.167969 C 598.960938 2555.589844 596.464844 2493.71875 592.859375 2448.488281 C 587.585938 2381.207031 581.761719 2340.003906 546.382812 2336.257812 C 508.234375 2332.09375 490.753906 2377.738281 474.664062 2429.066406 C 455.101562 2491.355469 430.960938 2594.988281 402.800781 2737.042969 C 399.058594 2753.691406 389.070312 2767.84375 374.78125 2777 C 360.351562 2786.152344 343.148438 2789.207031 326.363281 2785.597656 C 309.578125 2781.855469 295.289062 2771.863281 286.132812 2757.4375 C 276.976562 2743.007812 273.925781 2725.808594 277.53125 2709.019531 C 277.667969 2708.1875 277.808594 2707.496094 277.945312 2706.664062 C 291.402344 2613.296875 317.070312 2533.53125 337.601562 2469.574219 C 342.734375 2453.621094 347.449219 2438.640625 351.75 2424.765625 C 380.746094 2329.042969 397.808594 2279.378906 421.808594 2238.453125 C 464.675781 2165.484375 518.78125 2148.558594 544.859375 2140.375 C 547.21875 2139.679688 549.4375 2138.988281 551.242188 2138.292969 C 590.226562 2125.390625 640.445312 2114.710938 700.652344 2106.800781 C 782.917969 2095.980469 864.765625 2101.253906 943.84375 2122.480469 C 965.207031 2128.167969 982.964844 2133.855469 993.785156 2138.433594 C 1025.550781 2151.75 1071.609375 2157.578125 1111.011719 2153.414062 C 1111.566406 2153.414062 1111.980469 2153.277344 1112.535156 2153.277344 C 1185.507812 2142.039062 1247.796875 2090.570312 1275.125 2019.128906 L 1322.015625 1896.632812 L 1452.140625 1896.632812 C 1452.976562 1905.09375 1452.003906 1913.554688 1449.507812 1921.878906 Z M 1690.054688 1689.644531 C 1671.882812 1689.644531 1657.175781 1704.351562 1657.175781 1722.523438 L 1657.175781 1830.457031 L 1496.808594 1830.457031 C 1480.4375 1805.621094 1456.160156 1787.3125 1427.445312 1778.292969 C 1371.121094 1760.671875 1311.605469 1783.5625 1280.394531 1830.457031 L 1256.253906 1830.457031 C 1218.105469 1830.457031 1187.03125 1799.378906 1187.03125 1761.230469 L 1187.03125 1360.308594 L 1264.164062 1360.308594 C 1277.34375 1435.222656 1342.964844 1492.378906 1421.757812 1492.378906 C 1500.417969 1492.378906 1566.035156 1435.222656 1579.214844 1360.308594 L 1657.042969 1360.308594 L 1657.042969 1468.242188 C 1657.042969 1486.414062 1671.746094 1501.117188 1689.921875 1501.117188 C 1741.804688 1501.117188 1784.117188 1543.429688 1784.117188 1595.3125 C 1784.117188 1647.195312 1741.804688 1689.507812 1689.921875 1689.507812 Z M 803.152344 1963.214844 C 937.300781 1963.214844 1046.347656 1854.175781 1046.347656 1720.023438 C 1046.347656 1585.871094 937.304688 1476.832031 803.152344 1476.832031 C 669.003906 1476.832031 559.960938 1585.871094 559.960938 1720.023438 C 559.960938 1854.175781 669 1963.214844 803.152344 1963.214844 Z M 803.152344 1542.582031 C 900.957031 1542.582031 980.585938 1622.214844 980.585938 1720.015625 C 980.585938 1817.820312 900.957031 1897.449219 803.152344 1897.449219 C 705.351562 1897.449219 625.71875 1817.820312 625.71875 1720.015625 C 625.71875 1622.214844 705.351562 1542.582031 803.152344 1542.582031 Z M 3537.195312 2695.984375 C 3522.90625 2597.628906 3496.550781 2515.5 3475.320312 2449.328125 C 3470.328125 2433.789062 3465.609375 2419.085938 3461.589844 2405.488281 C 3431.066406 2304.632812 3412.753906 2251.640625 3385.289062 2204.886719 C 3329.660156 2109.996094 3256.410156 2087.109375 3225.195312 2077.257812 C 3223.253906 2076.703125 3221.453125 2076.148438 3219.925781 2075.589844 C 3177.058594 2061.304688 3122.675781 2049.789062 3058.304688 2041.324219 C 2967.4375 2029.394531 2876.988281 2035.222656 2789.453125 2058.804688 C 2772.386719 2063.382812 2748.390625 2070.320312 2731.1875 2077.535156 C 2713.011719 2085.164062 2678.46875 2090.992188 2647.117188 2087.800781 C 2597.730469 2079.890625 2555.417969 2044.515625 2536.550781 1995.265625 L 2498.539062 1896.074219 C 2570.957031 1893.855469 2629.222656 1834.339844 2629.222656 1761.367188 L 2629.222656 1327.5625 C 2629.222656 1309.386719 2614.515625 1294.683594 2596.34375 1294.683594 L 2484.945312 1294.683594 C 2469.683594 1222.265625 2405.316406 1167.609375 2328.320312 1167.609375 C 2251.324219 1167.609375 2186.953125 1222.269531 2171.695312 1294.683594 L 2060.296875 1294.683594 C 2042.121094 1294.683594 2027.417969 1309.386719 2027.417969 1327.5625 L 2027.417969 1468.367188 C 2027.417969 1486.542969 2042.121094 1501.246094 2060.296875 1501.246094 C 2112.179688 1501.246094 2154.492188 1543.558594 2154.492188 1595.441406 C 2154.492188 1647.324219 2112.179688 1689.636719 2060.296875 1689.636719 C 2042.121094 1689.636719 2027.417969 1704.339844 2027.417969 1722.515625 L 2027.417969 1863.324219 C 2027.417969 1881.496094 2042.121094 1896.203125 2060.296875 1896.203125 L 2232.039062 1896.203125 C 2231.347656 1910.769531 2233.011719 1925.472656 2237.3125 1939.902344 C 2256.179688 2020.085938 2282.257812 2088.339844 2305.289062 2144.664062 C 2336.226562 2220.132812 2390.328125 2283.53125 2457.476562 2323.203125 C 2457.753906 2323.34375 2458.167969 2323.621094 2458.445312 2323.761719 C 2513.105469 2353.585938 2558.332031 2360.941406 2594.675781 2366.765625 C 2628.941406 2372.3125 2648.363281 2376.058594 2665.011719 2390.765625 C 2686.792969 2441.953125 2684.433594 2815.835938 2678.746094 2931.117188 L 2564.019531 3449.128906 C 2548.898438 3517.660156 2592.179688 3585.640625 2660.714844 3600.898438 L 2668.34375 3602.5625 C 2677.777344 3604.640625 2687.210938 3605.613281 2696.503906 3605.613281 C 2753.800781 3605.613281 2804.992188 3567.046875 2819.417969 3508.917969 L 2948.710938 2986.890625 L 3077.449219 3506.433594 C 3094.097656 3573.574219 3163.878906 3617.414062 3229.914062 3602.429688 C 3263.902344 3594.664062 3293.589844 3573.019531 3311.210938 3542.917969 C 3328.6875 3513.226562 3333.265625 3477.296875 3324.113281 3444.28125 L 3218.539062 2930.992188 C 3214.375 2878.414062 3212.433594 2618.296875 3220.894531 2476.65625 C 3235.324219 2528.539062 3255.578125 2612.886719 3282.90625 2750.503906 C 3282.90625 2750.78125 3283.046875 2750.921875 3283.046875 2751.199219 C 3290.539062 2785.046875 3310.792969 2814.039062 3340.066406 2832.632812 C 3369.335938 2851.359375 3404.15625 2857.464844 3438.007812 2849.972656 C 3471.855469 2842.480469 3500.847656 2822.226562 3519.441406 2792.957031 C 3537.890625 2764.101562 3544.132812 2729.835938 3537.058594 2696.261719 Z M 2093.320312 1752.082031 C 2165.738281 1736.824219 2220.394531 1672.453125 2220.394531 1595.457031 C 2220.394531 1518.460938 2165.734375 1454.09375 2093.320312 1438.832031 L 2093.320312 1360.3125 L 2201.253906 1360.3125 C 2219.425781 1360.3125 2234.132812 1345.609375 2234.132812 1327.433594 C 2234.132812 1275.550781 2276.445312 1233.238281 2328.328125 1233.238281 C 2380.210938 1233.238281 2422.523438 1275.550781 2422.523438 1327.433594 C 2422.523438 1345.609375 2437.226562 1360.3125 2455.398438 1360.3125 L 2563.332031 1360.3125 L 2563.332031 1761.234375 C 2563.332031 1799.382812 2532.257812 1830.460938 2494.105469 1830.460938 L 2469.96875 1830.460938 C 2438.753906 1783.570312 2379.378906 1760.679688 2322.917969 1778.296875 C 2294.0625 1787.3125 2269.921875 1805.625 2253.554688 1830.460938 L 2093.1875 1830.460938 L 2093.1875 1751.941406 Z M 3464.105469 2757.320312 C 3454.949219 2771.746094 3440.660156 2781.734375 3423.875 2785.480469 C 3407.089844 2789.226562 3390.027344 2786.175781 3375.460938 2776.878906 C 3361.171875 2767.722656 3351.183594 2753.574219 3347.4375 2736.925781 C 3319.273438 2594.867188 3295.132812 2491.238281 3275.578125 2428.949219 C 3259.484375 2377.617188 3241.867188 2331.976562 3203.855469 2336.136719 C 3168.480469 2340.023438 3162.652344 2381.085938 3157.382812 2448.371094 C 3153.773438 2493.59375 3151.414062 2555.46875 3150.167969 2632.046875 C 3148.085938 2766.890625 3150.582031 2908.535156 3153.21875 2938.222656 C 3153.359375 2939.46875 3153.496094 2940.71875 3153.773438 2941.964844 L 3259.902344 3458.3125 C 3260.039062 3459.144531 3260.316406 3459.976562 3260.59375 3460.945312 C 3265.449219 3477.316406 3263.230469 3494.519531 3254.628906 3509.226562 C 3246.027344 3523.929688 3232.015625 3534.195312 3215.367188 3537.941406 C 3184.15625 3545.015625 3149.472656 3522.820312 3141.429688 3490.359375 L 2980.78125 2841.9375 C 2977.175781 2827.230469 2963.996094 2816.964844 2948.875 2816.964844 C 2933.753906 2816.964844 2920.574219 2827.230469 2916.96875 2841.9375 L 2755.625 3492.84375 C 2747.578125 3525.445312 2715.53125 3545.285156 2682.652344 3538.070312 L 2675.023438 3536.40625 C 2642.007812 3529.050781 2621.058594 3496.175781 2628.273438 3463.15625 L 2743.554688 2942.515625 C 2743.972656 2940.710938 2744.25 2938.910156 2744.25 2937.105469 C 2745.914062 2905.890625 2749.382812 2772.019531 2748.132812 2640.921875 C 2745.359375 2376.230469 2725.800781 2357.5 2712.757812 2345.152344 C 2680.019531 2313.800781 2643.671875 2307.972656 2605.246094 2301.730469 C 2572.367188 2296.457031 2535.1875 2290.355469 2490.515625 2266.214844 C 2435.71875 2233.753906 2391.601562 2181.730469 2366.214844 2119.71875 C 2344.019531 2065.617188 2319.050781 1999.996094 2301.152344 1923.835938 C 2301.015625 1923.003906 2300.738281 1922.308594 2300.460938 1921.476562 C 2297.824219 1913.152344 2296.992188 1904.691406 2297.824219 1896.230469 L 2427.953125 1896.230469 L 2474.84375 2018.726562 C 2502.171875 2090.167969 2564.597656 2141.636719 2637.429688 2152.875 C 2637.984375 2153.011719 2638.402344 2153.011719 2638.957031 2153.011719 C 2678.355469 2157.3125 2724.410156 2151.347656 2756.183594 2138.03125 C 2767.003906 2133.453125 2784.761719 2127.902344 2806.121094 2122.078125 C 2885.199219 2100.851562 2967.046875 2095.578125 3049.316406 2106.398438 C 3109.523438 2114.308594 3159.882812 2124.851562 3198.722656 2137.890625 C 3200.667969 2138.445312 3202.746094 2139.140625 3205.105469 2139.972656 C 3231.1875 2148.15625 3285.289062 2165.082031 3328.15625 2238.050781 C 3352.292969 2279.113281 3369.21875 2328.640625 3398.214844 2424.363281 C 3402.378906 2438.238281 3407.234375 2453.21875 3412.367188 2469.171875 C 3432.898438 2533.265625 3458.425781 2612.894531 3472.019531 2706.261719 C 3472.15625 2707.09375 3472.296875 2707.925781 3472.433594 2708.617188 C 3476.179688 2725.40625 3473.128906 2742.46875 3463.835938 2757.035156 Z M 2947.335938 1963.25 C 3081.484375 1963.25 3190.527344 1854.210938 3190.527344 1720.058594 C 3190.527344 1585.90625 3081.488281 1476.867188 2947.335938 1476.867188 C 2813.1875 1476.867188 2704.144531 1585.90625 2704.144531 1720.058594 C 2704.144531 1854.210938 2813.183594 1963.25 2947.335938 1963.25 Z M 2947.335938 1542.617188 C 3045.140625 1542.617188 3124.769531 1622.25 3124.769531 1720.050781 C 3124.769531 1817.855469 3045.140625 1897.484375 2947.335938 1897.484375 C 2849.535156 1897.484375 2769.902344 1817.855469 2769.902344 1720.050781 C 2769.902344 1622.25 2849.535156 1542.617188 2947.335938 1542.617188 Z M 2947.335938 1542.617188 "/></g></svg>